<svg width="716" height="139" viewBox="0 0 716 139" fill="none" xmlns="http://www.w3.org/2000/svg">
<path fill-rule="evenodd" clip-rule="evenodd" d="M716 136.191V2.1067H700.096V108.225H699.902L626.007 2.1067H608.163V136.191H624.067V28.5404H624.455L699.514 136.191H716ZM586.442 136.191H602.345V2.1067H586.442V136.191ZM586.054 136.191L533.88 69.7235L586.054 2.1067H565.882L516.425 67.8077V2.1067H500.521V136.191H516.425V71.6392L565.882 136.191H586.054ZM495.111 61.1045V45.9719C471.839 47.5045 460.59 63.4021 460.59 82.9403V136.191H475.911V99.4133H494.336V84.4729H475.911V82.9403C475.911 69.5325 480.76 62.6358 495.111 61.1045ZM455.761 91.9425C455.761 66.8505 435.978 45.9719 409.797 45.9719C383.612 45.9719 363.83 66.8505 363.83 91.9425C363.83 117.036 383.612 137.914 409.797 137.914C435.978 137.914 455.761 117.036 455.761 91.9425ZM439.664 91.9425C439.664 108.8 426.67 122.208 409.797 122.208C392.921 122.208 379.927 108.8 379.927 91.9425C379.927 75.0863 392.921 61.6786 409.797 61.6786C426.67 61.6786 439.664 75.0863 439.664 91.9425ZM359.004 17.4302H391.392V2.1067H308.187L273.082 55.7403L237.589 2.1067H219.164L263.385 70.1066L219.94 136.191H239.335L273.082 84.6639L306.249 136.191H325.642L282.393 70.1066L316.527 17.4302H343.098V136.191H359.004V17.4302ZM219.358 10.727C209.078 3.44836 196.278 0 181.344 0C141.972 0 112.686 30.2652 112.686 68.9572C112.686 107.65 141.584 138.107 181.344 138.107C196.278 138.107 209.078 134.467 219.358 127.38V107.075C210.242 116.845 196.472 122.4 181.732 122.4C155.354 122.4 134.795 104.202 132.08 75.6617H218V60.1459H132.08C136.152 32.5628 156.13 15.7067 181.732 15.7067C196.472 15.7067 210.242 21.454 219.358 31.4134V10.727ZM91.1571 136.191H107.837V2.1067H91.9331V108.225H91.5451L17.6489 2.1067H0V136.191H15.9037V28.5404H16.2916L91.1571 136.191Z" fill="#A0191E"/>
</svg>
