<?xml version="1.0" standalone="no"?>
<!DOCTYPE svg PUBLIC "-//W3C//DTD SVG 20010904//EN"
 "http://www.w3.org/TR/2001/REC-SVG-20010904/DTD/svg10.dtd">
<svg version="1.0" xmlns="http://www.w3.org/2000/svg"
 width="470.000000pt" height="470.000000pt" viewBox="0 0 470.000000 470.000000"
 preserveAspectRatio="xMidYMid meet">
<metadata>
Created by potrace 1.11, written by Peter Selinger 2001-2013
</metadata>
<g transform="translate(0.000000,470.000000) scale(0.100000,-0.100000)"
fill="#000000" stroke="none">
<path d="M2355 3134 c-216 -35 -417 -161 -530 -331 -15 -24 -30 -43 -34 -43
-3 0 -62 81 -130 180 l-125 180 -98 0 -98 0 0 -765 0 -765 90 0 90 0 2 611 3
611 92 -134 92 -135 -11 -69 c-15 -98 -5 -264 22 -349 34 -108 103 -233 170
-307 64 -71 190 -160 277 -196 245 -103 561 -64 766 92 26 20 49 36 52 36 2 0
32 -36 65 -80 l61 -80 109 0 c61 0 110 2 110 5 0 3 -37 53 -83 113 -46 59 -96
124 -111 144 l-27 37 40 73 c79 147 112 318 93 490 -14 125 -73 309 -100 308
-4 -1 -33 -35 -65 -76 l-58 -75 17 -67 c34 -135 20 -325 -33 -451 l-19 -43
-109 141 c-61 78 -111 147 -113 154 -1 6 126 180 283 386 157 206 285 378 285
383 0 4 -48 8 -107 8 l-108 -1 -275 -369 c-151 -204 -278 -370 -282 -370 -5 0
-8 128 -8 285 l0 285 24 0 c40 0 148 -37 196 -68 25 -15 50 -31 57 -35 7 -4
32 21 64 64 l53 72 -30 23 c-46 37 -163 92 -234 109 -65 16 -269 28 -325 19z
m25 -706 c0 -447 -2 -520 -14 -508 -8 8 -96 137 -196 285 -101 149 -189 276
-196 284 -20 22 -34 -47 -34 -166 l0 -102 146 -217 147 -217 -53 29 c-120 65
-221 190 -268 331 -36 110 -38 283 -4 393 44 140 134 261 252 335 50 32 163
74 198 75 l22 0 0 -522z m339 -322 l151 -200 -22 -23 c-51 -54 -165 -111 -260
-128 l-38 -7 0 282 c0 165 4 280 9 278 5 -1 77 -93 160 -202z"/>
</g>
</svg>
